<svg width="270" height="66" viewBox="0 0 270 66" fill="none" xmlns="http://www.w3.org/2000/svg">
<path d="M243.058 31.1996C245.635 29.5283 249.252 27.203 254.463 23.8458C246.376 21.1281 239.712 18.5121 232.835 16.6955C226.642 15.0532 220.249 14.1231 213.885 13.222C209.713 12.6262 207.521 10.1555 207.649 6.30419C207.791 1.66808 211.479 -0.991465 215.893 0.345594C232.508 5.40316 249.081 10.577 265.525 16.1723C267.59 16.8699 269.91 20.2997 269.996 22.5524C270.096 25.023 268.359 28.4238 266.337 29.9644C257.994 36.3444 249.052 41.9106 240.737 48.3198C235.797 52.1275 231.583 56.938 227.055 61.3125C225.531 62.7804 224.264 64.9459 222.485 65.5708C220.463 66.2684 217.786 66.0794 215.779 65.2656C214.953 64.9313 214.469 61.7049 215.024 60.2661C215.992 57.7083 217.658 55.3394 219.409 53.2176C223.567 48.2326 227.966 43.4366 232.294 38.5244C228.678 38.2047 224.264 37.2891 219.908 37.5071C169.834 40.0068 119.745 42.5356 69.6853 45.3841C51.4325 46.4305 33.2367 48.3344 15.0124 49.9476C12.9907 50.122 10.9974 50.8777 9.03259 51.5026C4.46228 52.9559 1.45811 51.5026 0.247906 47.1426C-0.819924 43.3204 1.6432 39.5708 6.07114 39.2075C18.7142 38.1611 31.3858 37.5216 44.0432 36.5479C60.0037 35.3271 75.9357 33.8302 91.8962 32.653C101.564 31.9408 111.259 31.5921 120.941 31.0398C133.413 30.3422 145.871 29.5138 158.344 28.8889C170.261 28.293 182.178 27.8861 194.095 27.3919C200.174 27.1449 206.268 26.7234 212.347 26.7089C219.281 26.7089 226.229 26.738 233.12 27.4065C236.124 27.6972 238.972 29.5865 243.072 31.2142L243.058 31.1996Z" fill="black"/>
</svg>
