<svg width="64" height="66" viewBox="0 0 64 66" fill="none" xmlns="http://www.w3.org/2000/svg">
<path d="M25.1767 26.6253C18.8803 21.3539 12.913 16.6395 7.31777 11.5109C5.80091 10.1109 4.24109 6.99655 4.84211 5.52511C5.47176 3.92509 8.6772 2.38222 10.6377 2.53937C12.9273 2.72508 15.4459 4.35368 17.2203 6.0537C21.8997 10.4966 26.2214 15.3109 30.6718 19.9681C37.2831 14.3109 43.4507 8.75371 49.9189 3.58223C56.4443 -1.63211 57.3172 -1.38924 64 5.86798C61.4671 8.05372 58.9629 10.2252 56.4586 12.3823C50.4197 17.5681 44.3666 22.7539 38.4279 27.8396C43.8657 36.2969 48.5881 44.0398 53.7397 51.497C55.9864 54.7542 57.6749 57.6685 53.711 60.3971C49.4323 63.34 46.7993 59.7828 44.8531 56.9685C40.8606 51.2399 37.4262 45.1255 33.7342 39.1826C33.2047 38.3255 32.5035 37.5826 31.4302 36.2112C25.3055 43.397 19.4241 50.2256 13.6285 57.14C12.913 57.9971 12.9273 59.4686 12.1975 60.3114C10.3944 62.3829 8.64858 65.0829 6.30173 65.9115C4.82779 66.4401 1.22165 64.4972 0.534765 62.8543C-0.33815 60.7543 -0.152116 57.1685 1.16441 55.3828C6.04415 48.8113 11.5679 42.7112 16.8483 36.454C19.3096 33.5254 21.7996 30.6254 25.2054 26.6253H25.1767Z" fill="red"/>
</svg>
