<svg width="24" height="24" viewBox="0 0 24 24" fill="none" xmlns="http://www.w3.org/2000/svg">
<mask id="mask0_1_4925" style="mask-type:alpha" maskUnits="userSpaceOnUse" x="0" y="0" width="24" height="24">
<path d="M24 0H0V24H24V0Z" fill="white"/>
</mask>
<g mask="url(#mask0_1_4925)">
<path d="M11.4535 14.673C11.4535 15.723 10.9435 16.583 10.3135 16.583C9.6735 16.583 9.1635 15.723 9.1635 14.673C9.1635 13.613 9.6735 12.763 10.3135 12.763C10.9435 12.763 11.4535 13.613 11.4535 14.673ZM15.2713 14.673C15.2713 15.723 14.7613 16.583 14.1313 16.583C13.4913 16.583 12.9813 15.723 12.9813 14.673C12.9813 13.613 13.4913 12.763 14.1313 12.763C14.7613 12.763 15.2713 13.613 15.2713 14.673ZM13.59 3.85291C13.62 2.86291 14.41 2.07291 15.37 2.07291C16.35 2.07291 17.14 2.89291 17.14 3.91291C17.14 4.93291 16.35 5.75291 15.37 5.75291C14.67 5.75291 14.04 5.33291 13.75 4.67291C12.88 5.37291 12.48 6.57291 12.55 8.26291C13.42 8.29291 14.28 8.46291 15.1 8.75291C16.04 7.55291 17.15 6.94291 18.43 6.93291C19.18 6.93291 20 7.15291 20.88 7.57291C21.22 7.17291 21.71 6.93291 22.22 6.93291C22.69 6.93291 23.15 7.13291 23.48 7.47291C23.81 7.82291 24 8.29291 24 8.78291C24 9.79291 23.2 10.6229 22.22 10.6229C21.24 10.6229 20.44 9.79291 20.44 8.78291C20.44 8.65291 20.46 8.53291 20.48 8.40291C19.24 8.24291 18.34 8.91291 17.8 10.4129C19.13 11.6829 19.87 13.3529 19.87 15.0929C19.87 18.8629 16.46 21.9229 12.25 21.9229C10.23 21.9229 8.3 21.2029 6.87 19.9229C5.44 18.6429 4.63 16.9029 4.63 15.0929C4.64 13.5229 5.24 11.9929 6.35 10.7829C5.4 9.63291 4.4 9.29291 3.35 9.76291C3.48 10.0229 3.55 10.3229 3.56 10.6229C3.56 11.6329 2.76 12.4629 1.78 12.4629C0.8 12.4629 0 11.6329 0 10.6229C0 9.60291 0.8 8.78291 1.78 8.78291C2.16 8.78291 2.52 8.90291 2.83 9.13291C3.63 8.19291 4.48 7.70291 5.38 7.66291C6.37 7.61291 7.42 8.10291 8.53 9.13291C8.7 9.04291 8.87 8.97291 9.05 8.89291C9.53 6.02291 11.04 4.33291 13.59 3.85291ZM5.7076 15.6374C5.7076 18.3874 8.6376 20.6074 12.2576 20.6074C15.8676 20.6074 18.7976 18.3874 18.7976 15.6374C18.7976 12.8974 15.8676 10.6774 12.2576 10.6774C8.6376 10.6774 5.7076 12.8974 5.7076 15.6374Z" fill="black"/>
</g>
</svg>
