<svg width="24" height="24" viewBox="0 0 24 24" fill="none" xmlns="http://www.w3.org/2000/svg">
<g id="Group">
<mask id="mask0_1_5904" style="mask-type:alpha" maskUnits="userSpaceOnUse" x="0" y="0" width="24" height="24">
<g id="bg-mask">
<path id="Vector" d="M24 0H0V24H24V0Z" fill="white"/>
</g>
</mask>
<g mask="url(#mask0_1_5904)">
<g id="Group_2">
<path id="&#229;&#136;&#134;&#231;&#187;&#132; 7" d="M18.1584 8.04076C18.1884 8.02076 18.2284 8.01076 18.2584 7.99076C18.2484 8.05076 18.2184 8.13076 18.1684 8.22076C18.1384 8.29076 18.0984 8.37076 18.0584 8.45076C18.0484 8.48076 18.0284 8.51076 18.0184 8.54076C17.9684 8.62076 17.9284 8.70076 17.8784 8.78076C17.7584 8.98076 17.6384 9.18076 17.5084 9.37076C17.4784 9.41076 17.4384 9.46076 17.3984 9.51076C17.3784 9.55076 17.3484 9.58076 17.3184 9.61076C17.2384 9.71076 17.1384 9.81076 17.0384 9.90076C16.9984 9.93076 16.9584 9.97076 16.9084 10.0008C16.8384 10.0508 16.7784 10.1108 16.6984 10.1508C16.6484 10.1808 16.6084 10.2108 16.5584 10.2408C16.3184 10.3708 16.0484 10.4708 15.7484 10.5508C15.7584 10.5508 15.7784 10.5508 15.7884 10.5508C15.8484 10.5508 15.9184 10.5508 15.9684 10.5408C16.4184 10.5108 16.7984 10.3708 17.0384 10.2508C16.5484 10.9608 15.9284 11.5008 15.0484 11.7008C15.0984 11.6908 15.1484 11.7008 15.1984 11.6908H15.3384C15.6084 11.6708 15.8584 11.6208 16.0784 11.5508C15.8484 12.0208 15.6084 12.4508 15.3784 12.8408C15.1084 13.3008 14.8384 13.7008 14.5584 14.0608C14.1884 14.5408 13.7984 14.9408 13.3884 15.2708C12.4984 15.9808 11.2084 16.4808 10.2984 16.4608C10.3184 16.4708 10.3284 16.4708 10.3384 16.4708C11.3184 16.8008 12.2984 16.7008 13.2384 15.9808C13.1284 16.1508 12.9984 16.3108 12.8684 16.4608C12.3584 17.0708 11.8284 17.4008 10.8384 17.6808C11.4684 17.8108 11.8184 17.7108 12.1484 17.4108C12.0884 17.5008 12.0284 17.5808 11.9584 17.6708C11.2184 18.5708 10.0084 18.7308 8.66838 18.4808C8.92838 18.8008 9.03838 19.1908 8.99838 19.5808C8.87838 19.2408 8.73838 18.9308 8.53838 18.7408C8.40838 18.6808 8.27838 18.6308 8.13838 18.5808C7.96838 18.9008 7.80838 19.2208 7.64838 19.5108C8.31838 21.6608 8.85838 23.1908 8.95838 23.4608C9.00838 23.6208 8.98838 23.7808 8.87838 23.9208C8.37838 22.4908 7.90838 21.1208 7.49838 19.8108C6.41838 21.9108 5.71838 23.4108 5.58838 23.6908C5.49838 23.8608 5.35838 23.9708 5.15838 24.0008C5.90838 22.3908 6.65838 20.8708 7.37838 19.4508C7.29838 19.1808 7.21838 18.9208 7.13838 18.6608C6.79838 18.8008 6.44838 19.1808 6.10838 19.7508C6.25838 19.2408 6.42838 18.7708 6.73838 18.5108C6.61838 18.5608 6.28838 18.6708 5.69838 18.6008C6.11838 18.4808 6.46838 18.3308 6.64838 18.1308C6.18838 17.5908 5.45838 17.2408 4.62838 16.9508C4.62838 16.9508 5.42838 16.8708 5.87838 17.0508C5.86838 17.0308 5.85838 17.0208 5.84838 17.0008C5.56838 16.5608 5.32838 16.0908 5.09838 15.6108C5.08838 15.5908 5.08838 15.5708 5.07838 15.5608L5.06838 15.5508C4.88838 15.1508 4.71838 14.7408 4.55838 14.3208C4.49838 14.1408 4.42838 13.9608 4.36838 13.7808C4.29838 13.5608 4.22838 13.3308 4.15838 13.1008C4.04838 12.7408 3.94838 12.3508 3.84838 11.9308C3.76838 11.5708 3.68838 11.1808 3.60838 10.7808C3.59838 10.7108 3.58838 10.6408 3.57838 10.5808C3.51838 10.2508 3.46838 9.93076 3.41838 9.61076C3.35838 9.22076 3.31838 8.84076 3.26838 8.46076C3.22838 8.08076 3.19838 7.71076 3.16838 7.34076C3.16838 7.31076 3.15838 7.29076 3.15838 7.26076H3.14838C3.14838 7.25076 3.14838 7.24076 3.14838 7.22076C3.11838 6.87076 3.09838 6.54076 3.07838 6.20076C3.05838 5.81076 3.04838 5.42076 3.03838 5.05076C3.02838 4.65076 3.02838 4.26076 3.02838 3.90076C3.02838 3.59076 3.03838 3.28076 3.04838 2.97076C3.05838 2.89076 3.05838 2.81076 3.06838 2.74076L3.67838 3.03076L3.06838 2.73076C3.12838 1.64076 3.24838 0.830761 3.40838 0.460761C3.56838 0.0707608 3.92838 -0.00923915 4.23838 0.000760854C4.54838 0.0107609 4.81838 0.120761 4.81838 0.120761C4.81838 0.120761 5.57838 0.340761 6.18838 1.59076C5.74838 2.03076 5.23838 2.54076 4.78838 2.94076C5.23838 2.54076 5.74838 2.04076 6.18838 1.59076C6.24838 1.72076 6.29838 1.85076 6.35838 1.98076C6.41838 2.14076 6.47838 2.33076 6.53838 2.54076C6.62838 2.87076 6.69838 3.25076 6.76838 3.64076C6.83838 4.05076 6.87838 4.46076 6.90838 4.87076C6.91838 5.00076 6.92838 5.13076 6.92838 5.26076C6.92838 5.71076 6.85838 6.08076 6.53838 6.66076C6.55838 6.64076 6.56838 6.63076 6.57838 6.61076C6.57838 6.61076 6.58838 6.61076 6.58838 6.60076C6.80838 6.37076 7.04838 6.04076 7.14838 5.80076C7.15838 5.77076 7.17838 5.74076 7.17838 5.70076C7.21838 5.77076 7.24838 5.84076 7.26838 5.91076C7.29838 5.97076 7.31838 6.04076 7.34838 6.12076C7.35838 6.15076 7.35838 6.18076 7.36838 6.21076C7.38838 6.28076 7.41838 6.36076 7.43838 6.44076C7.48838 6.64076 7.52838 6.84076 7.55838 7.04076C7.56838 7.09076 7.57838 7.15076 7.58838 7.20076C7.59838 7.24076 7.59838 7.27076 7.59838 7.31076C7.60838 7.43076 7.60838 7.55076 7.59838 7.67076C7.59838 7.72076 7.58838 7.76076 7.58838 7.81076C7.57838 7.89076 7.55838 7.96076 7.54838 8.04076C7.52838 8.09076 7.51838 8.14076 7.50838 8.18076C7.43838 8.41076 7.32838 8.64076 7.18838 8.88076C7.19838 8.87076 7.20838 8.86076 7.21838 8.85076C7.25838 8.82076 7.29838 8.78076 7.32838 8.74076C7.58838 8.44076 7.73838 8.11076 7.81838 7.89076C7.94838 8.64076 7.89838 9.36076 7.46838 10.0408C7.49838 10.0008 7.52838 9.97076 7.55838 9.94076C7.57838 9.91076 7.60838 9.88076 7.63838 9.85076C7.79838 9.67076 7.92838 9.49076 8.01838 9.30076C8.15838 9.71076 8.27838 10.1308 8.37838 10.5508C8.49838 11.0108 8.57838 11.4308 8.61838 11.8208C8.68838 12.3608 8.68838 12.8508 8.63838 13.3108C8.54838 14.0908 8.22838 14.9308 7.80838 15.5308C7.85838 15.5808 7.89838 15.6208 7.93838 15.6808C8.11838 15.5408 8.28838 15.3908 8.42838 15.2208C8.50838 14.9108 8.60838 14.6008 8.71838 14.3008C8.72838 14.2808 8.72838 14.2608 8.73838 14.2508V14.2408C8.90838 13.7708 9.09838 13.3008 9.30838 12.8408C9.39838 12.6408 9.48838 12.4408 9.58838 12.2508C9.70838 12.0108 9.82838 11.7708 9.95838 11.5308C10.1584 11.1608 10.3784 10.7608 10.6284 10.3508C10.8484 9.99076 11.0984 9.61076 11.3584 9.23076C11.3984 9.17076 11.4384 9.10076 11.4884 9.04076C11.6984 8.74076 11.9184 8.44076 12.1384 8.14076C12.3984 7.79076 12.6584 7.44076 12.9284 7.09076C13.1884 6.76076 13.4684 6.43076 13.7284 6.11076C13.7484 6.09076 13.7684 6.07076 13.7884 6.04076H13.7784C13.7984 6.02076 13.7984 6.02076 13.8084 6.00076C14.0684 5.70076 14.3184 5.41076 14.5684 5.13076C14.8684 4.79076 15.1584 4.47076 15.4484 4.17076C15.7584 3.84076 16.0584 3.52076 16.3584 3.23076C16.6084 2.98076 16.8584 2.74076 17.1184 2.50076C17.1784 2.44076 17.2484 2.38076 17.3084 2.33076L17.8184 3.77076C17.5384 4.07076 17.2484 4.39076 16.9684 4.73076C16.9484 4.74076 16.9284 4.76076 16.9084 4.79076C16.6184 5.13076 16.3284 5.48076 16.0484 5.85076C15.7684 6.20076 15.4884 6.56076 15.2184 6.94076C14.9584 7.29076 14.6984 7.64076 14.4384 8.00076C14.4284 8.01076 14.4184 8.03076 14.4084 8.04076C14.2484 8.27076 14.0884 8.50076 13.9284 8.74076C13.8284 8.88076 13.7384 9.01076 13.6484 9.15076C13.3984 9.53076 13.1384 9.92076 12.8984 10.3008C12.6484 10.6908 12.3984 11.0808 12.1484 11.4808C11.9184 11.8708 11.6784 12.2608 11.4484 12.6408C11.2184 13.0308 10.9884 13.4208 10.7584 13.8008C10.5284 14.2108 10.2984 14.6108 10.0784 15.0008C10.0284 15.0908 9.97838 15.1808 9.92838 15.2708C9.74838 15.5908 9.56838 15.9008 9.40838 16.2108V16.2208C9.35838 16.3008 9.31838 16.3708 9.27838 16.4508C9.08838 16.7908 8.90838 17.1308 8.72838 17.4508C8.71838 17.4808 8.69838 17.5008 8.68838 17.5308C8.63838 17.6208 8.58838 17.7108 8.54838 17.8008C8.41838 18.0308 8.32838 18.2308 8.20838 18.4508C8.28838 18.5008 8.36838 18.5608 8.43838 18.6308C8.65838 18.1908 8.76838 17.9808 8.88838 17.7608C8.90838 17.7108 8.92838 17.6708 8.95838 17.6208C8.95838 17.6208 8.95838 17.6108 8.96838 17.6108C9.13838 17.2708 9.30838 16.9508 9.47838 16.6308C9.51838 16.5708 9.54838 16.5108 9.57838 16.4508C9.57838 16.4408 9.58838 16.4308 9.59838 16.4208C9.81838 16.0108 10.0384 15.6108 10.2484 15.2308C10.2584 15.2108 10.2684 15.1908 10.2784 15.1708C10.4984 14.7808 10.7084 14.4008 10.9284 14.0308C11.1584 13.6108 11.3984 13.2108 11.6284 12.8208C11.8584 12.4308 12.0984 12.0308 12.3384 11.6408C12.5684 11.2508 12.8084 10.8708 13.0484 10.4908C13.2384 10.1908 13.4284 9.90076 13.6084 9.61076C13.6684 9.52076 13.7284 9.43076 13.7884 9.34076C13.9184 9.15076 14.0284 8.98076 14.1484 8.80076C14.2484 8.64076 14.3584 8.49076 14.4684 8.33076C14.4984 8.28076 14.5284 8.23076 14.5684 8.18076C14.5684 8.18076 14.5784 8.17076 14.5784 8.15076H14.5884C14.8584 7.77076 15.1084 7.40076 15.3584 7.06076C15.6484 6.66076 15.9184 6.30076 16.1784 5.96076C16.4784 5.56076 16.7584 5.20076 17.0184 4.87076C17.0384 4.85076 17.0484 4.83076 17.0684 4.81076C17.3784 4.44076 17.6584 4.11076 17.9184 3.82076C18.8484 2.76076 19.4284 2.25076 19.6284 2.09076C19.0384 2.56076 18.4284 3.13076 17.8284 3.77076L17.3084 2.33076C18.2184 1.49076 18.9684 0.940761 19.3984 0.760761C20.2684 0.400761 20.7984 1.62076 20.7984 1.62076C20.7984 1.62076 21.2284 2.39076 20.7284 3.88076C20.6784 4.03076 20.6184 4.18076 20.5584 4.33076C20.4784 4.51076 20.3784 4.71076 20.2584 4.92076C20.0684 5.26076 19.8284 5.63076 19.5684 6.00076C19.2984 6.38076 18.9984 6.76076 18.6984 7.10076C18.6084 7.21076 18.5084 7.32076 18.4084 7.42076C18.0584 7.79076 17.7084 8.03076 16.9884 8.24076C17.0084 8.24076 17.0484 8.24076 17.0684 8.24076C17.4284 8.23076 17.8784 8.15076 18.1584 8.04076ZM19.994 3.88826C19.7445 3.88822 19.4915 3.88572 19.2484 3.88076C19.4952 3.8858 19.7446 3.8883 19.994 3.88826ZM7.43061 15.9838C7.45061 15.9738 7.46061 15.9738 7.47061 15.9638C7.53061 15.9338 7.59061 15.9038 7.65061 15.8638C7.64061 15.8438 7.63061 15.8138 7.62061 15.7838C7.55061 15.8538 7.49061 15.9238 7.43061 15.9838ZM7.06031 17.5805C7.07031 17.6105 7.08031 17.6305 7.08031 17.6505C7.11031 17.7405 7.14031 17.8305 7.16031 17.9105C7.17031 17.9505 7.18031 17.9805 7.19031 18.0205C7.28031 17.9905 7.36031 17.9705 7.44031 17.9605C7.42031 17.9005 7.38031 17.7905 7.37031 17.7305C7.26031 17.6505 7.14031 17.5405 7.01031 17.4005C7.03031 17.4605 7.05031 17.5205 7.06031 17.5805ZM7.53591 19.1452C7.64591 18.9352 7.75591 18.7252 7.85591 18.5252C7.77591 18.5152 7.69591 18.5052 7.61591 18.5252C7.57591 18.4052 7.57591 18.3852 7.54591 18.2952C7.45591 18.2852 7.36591 18.2852 7.27591 18.2852C7.36591 18.5852 7.45591 18.8552 7.53591 19.1452ZM4.28812 3.32064L4.28838 3.32076C4.29838 3.70076 4.31838 4.08076 4.33838 4.46076C4.33838 4.48076 4.33838 4.51076 4.34838 4.53076C4.36838 4.93076 4.40838 5.33076 4.45838 5.74076C4.50838 6.14076 4.55838 6.54076 4.60838 6.94076C4.66838 7.32076 4.72838 7.70076 4.78838 8.09076L3.73838 7.56076L4.77838 8.09076C4.78838 8.10076 4.78838 8.12076 4.78838 8.13076C4.83838 8.38076 4.87838 8.62076 4.91838 8.87076C4.94838 9.01076 4.96838 9.16076 4.99838 9.30076C5.07838 9.70076 5.15838 10.1008 5.23838 10.4908C5.32838 10.9008 5.41838 11.3008 5.50838 11.7008C5.59838 12.0908 5.68838 12.4808 5.78838 12.8708C5.87838 13.2608 5.97838 13.6408 6.07838 14.0208C6.17838 14.4208 6.28838 14.8108 6.38838 15.2008C6.40838 15.2908 6.43838 15.3808 6.45838 15.4708C6.54838 15.7808 6.62838 16.0808 6.70838 16.3808H6.71838V16.3908C6.73838 16.4608 6.75838 16.5408 6.78838 16.6108C6.84838 16.8308 6.90838 17.0508 6.96838 17.2708C7.06838 17.3108 7.16838 17.3608 7.26838 17.4008C7.17838 17.1308 7.09838 16.8608 7.02838 16.6008C7.00838 16.5408 6.98838 16.4808 6.97838 16.4208C6.96838 16.4108 6.96838 16.4108 6.96838 16.4008C6.84838 16.0008 6.73838 15.6108 6.63838 15.2408C6.62838 15.2208 6.61838 15.2008 6.61838 15.1808C6.51838 14.8008 6.40838 14.4308 6.31838 14.0608C6.20838 13.6508 6.10838 13.2608 6.00838 12.8708C5.90838 12.4708 5.80838 12.0708 5.71838 11.6908C5.62838 11.2808 5.53838 10.8908 5.45838 10.5208C5.38838 10.2108 5.32838 9.91076 5.26838 9.62076C5.24838 9.52076 5.22838 9.42076 5.20838 9.33076C5.16838 9.14076 5.13838 8.96076 5.09838 8.77076C5.06838 8.61076 5.03838 8.44076 5.00838 8.28076C4.99838 8.23076 4.98838 8.18076 4.97838 8.12076C4.97838 8.12076 4.97838 8.11076 4.95838 8.10076L4.96838 8.09076C4.89838 7.68076 4.83838 7.29076 4.77838 6.93076C4.70838 6.50076 4.65838 6.10076 4.60838 5.72076C4.54838 5.29076 4.50838 4.89076 4.46838 4.52076C4.45838 4.49076 4.45838 4.47076 4.45838 4.45076C4.41838 4.02076 4.38838 3.64076 4.36838 3.30076C4.29838 2.05076 4.35838 1.37076 4.37838 1.15076C4.29873 1.8079 4.26864 2.54436 4.28812 3.32064Z" fill="black"/>
</g>
</g>
</g>
</svg>
