<svg width="79" height="52" viewBox="0 0 79 52" fill="none" xmlns="http://www.w3.org/2000/svg">
<path d="M53.8911 15.8155C52.2001 12.0571 50.3811 8.72112 49.2585 5.16662C48.8606 3.91381 49.7843 1.11687 50.7364 0.752681C52.6264 0.0243007 55.7243 -0.441888 56.9891 0.636115C63.4265 6.14267 69.8782 11.7804 75.4914 18.1464C81.2467 24.6581 79.8114 27.9795 71.9955 31.4175C68.5992 32.9034 65.4586 35.4964 62.8438 38.2497C60.3996 40.8281 58.5096 42.8676 55.0707 40.1143C51.7027 37.4193 50.8927 33.1948 53.2801 29.8151C54.0759 28.6934 55.0991 27.7319 56.9607 25.6196C50.708 27.1201 45.1658 27.5716 40.4053 29.7859C31.4952 33.9231 22.9404 38.8906 14.4708 43.931C12.1118 45.3295 10.8044 48.4761 8.55912 50.2242C6.64068 51.7247 4.49488 53.1378 1.63854 50.6176C-1.04727 48.2285 0.189049 46.4075 1.01327 44.0767C4.87857 33.0928 14.3145 28.9409 23.722 25.3719C33.4136 21.7008 43.5316 19.2244 53.4506 16.1797C53.8911 16.0486 54.218 15.5096 53.8911 15.8155Z" fill="black"/>
</svg>
