<svg width="49" height="81" viewBox="0 0 49 81" fill="none" xmlns="http://www.w3.org/2000/svg">
<path d="M17.0482 60.3436C0.359468 46.009 -4.78226 21.8996 4.77493 4.27345C6.77933 0.58294 9.37928 -1.11272 13.359 0.782409C17.6728 2.83428 17.6583 6.02607 15.6249 9.95882C9.26308 22.2985 12.6763 41.1785 23.1921 49.9417C24.5429 46.7927 26.4892 43.9429 26.9104 40.8936C27.6367 35.6927 30.9628 34.2821 35.3492 33.9828C40.2731 33.6408 42.1613 37.1461 43.3959 40.9364C45.197 46.522 46.5623 52.2501 48.4505 57.793C50.2806 63.1506 47.3902 69.2635 42.0015 71.4721C36.8017 73.6095 31.7908 76.16 26.7072 78.5396C23.5408 80.0073 20.2146 82.6007 16.8885 79.6511C13.8093 76.9153 11.7613 73.4242 13.7511 68.95C14.9567 66.257 15.8718 63.4356 17.0482 60.3294V60.3436Z" fill="black"/>
</svg>
